<svg width="220" height="200" viewBox="0 0 220 200" fill="none" xmlns="http://www.w3.org/2000/svg">
<g id="logo-icon-BC">
<path id="Vector" d="M219.095 0H0L42.92 42.981V133.46L109.54 200L176.19 133.46V42.981L219.095 0Z" fill="#B44B46"/>
<g id="Vector_2">
<path d="M149.579 43.3458C146.356 43.375 143.76 46.0204 143.789 49.2358C143.789 49.2358 142.039 50.1712 138.116 49.1627C132.122 47.5989 126.041 35.1758 110.888 35.1758C102.546 35.2927 89.4499 41.1535 80.9621 53.8397C81.91 54.2781 82.7997 54.6581 83.5726 54.9504C85.8769 55.842 90.1499 56.8943 94.1313 57.8004C97.9523 50.8289 103.917 45.655 112.959 45.655C129.964 45.655 131.524 72.9859 131.524 72.9859C132.166 78.9344 132.735 81.1559 136.104 81.4482C140.96 81.872 141.281 77.4874 141.529 73.8628L142.039 56.5874C152.671 56.5874 155.486 52.3781 155.457 49.1481C155.427 45.9181 152.802 43.3166 149.579 43.3458Z" fill="white"/>
<path d="M142.039 121.568L141.864 117.271C140.989 117.344 140.114 117.402 139.225 117.402C139.137 117.402 139.035 117.402 138.948 117.402C135.302 117.402 131.787 116.788 128.491 115.678C128.447 115.78 128.403 115.882 128.36 115.984C125.705 121.86 121.243 126.844 110.232 126.844C99.2211 126.844 88.2103 121.86 88.2103 91.8105C90.2812 91.7959 91.9437 90.1005 91.9292 88.0251C91.9146 85.9497 90.2228 84.2836 88.1519 84.2982C88.1519 80.9805 88.429 77.1367 89.0853 73.1905C87.2332 72.9128 85.1039 72.7666 82.6684 72.7666C79.2266 72.7666 75.9161 73.7897 73.0868 75.6897C72.8097 77.999 72.6639 80.4105 72.6639 82.9244C76.9078 82.8951 80.7871 85.4528 80.8308 89.6913C80.86 93.9444 77.039 96.5605 72.7951 96.5898C72.7951 131.828 95.8085 137.688 101.059 137.688C119.959 137.688 126.289 128.261 135.433 128.261C137.664 128.261 137.679 131.579 137.679 131.579C137.708 134.911 140.421 137.601 143.76 137.571C147.085 137.542 149.74 134.824 149.74 131.477C149.74 124.418 145.102 121.538 142.039 121.538" fill="white"/>
<path d="M136.775 101.354C136.775 101.354 136.906 101.354 136.979 101.354C138.423 101.354 139.852 101.194 141.223 100.931L141.091 97.6859C140.858 93.8128 138.539 93.1698 136.031 93.1698C133.522 93.1698 131.801 94.6898 131.67 97.4082C131.67 97.4082 131.597 98.7383 131.422 100.741C133.129 101.15 134.937 101.354 136.775 101.354Z" fill="white"/>
<path d="M156.419 66.4966C160.867 63.6466 166.117 59.0135 166.117 59.0135C166.788 58.3266 167.211 57.3912 167.211 56.3389C167.197 54.2635 165.505 52.5974 163.434 52.612C162.778 52.612 162.18 52.7874 161.64 53.0797C161.64 53.0797 152.948 59.0135 144.242 60.5774C144.183 60.5774 144.11 60.592 144.052 60.6066L143.716 71.919C151.665 73.9359 157.382 79.4897 157.44 86.6951C157.513 95.8736 148.369 103.401 136.993 103.488C125.632 103.576 116.343 96.2244 116.27 87.0459C116.211 79.972 121.637 74.4036 129.322 72.1674C129.147 70.3405 128.608 66.1459 127.208 61.7466C123.051 61.7758 120.003 61.6882 120.003 61.6882C120.032 65.1228 116.226 67.9289 111.501 67.9728C106.776 68.0166 102.925 65.2689 102.896 61.8343C102.896 61.8343 88.0936 58.9989 82.8142 56.9674C77.5349 54.9358 66.7866 49.0312 66.7866 49.0312C66.3053 48.812 65.7511 48.6804 65.1823 48.695C63.1114 48.7097 61.4489 50.405 61.4634 52.4804C61.4634 53.6204 61.9885 54.6435 62.8052 55.3304L72.0513 62.8282C61.2447 67.3589 53.1652 80.0744 53.2673 92.629C53.384 106.631 61.2593 116.832 74.5306 118.732C72.3576 113.368 71.3221 107.741 70.8992 102.567C65.999 100.171 62.9802 96.0198 62.9364 90.2905C62.8489 80.7174 71.118 70.6913 82.6684 70.6913C98.4482 70.6913 103.742 76.7567 103.742 85.4967C103.742 92.7021 98.5211 100.024 91.0104 103.254C91.6229 107.946 92.6438 111.863 94.0876 114.991C102.007 110.474 108.015 102.699 109.649 94.0175C109.692 93.7544 109.926 93.5498 110.203 93.5498C110.451 93.5498 110.669 93.7105 110.742 93.9298C113.557 106.251 125.268 115.444 139.21 115.327C155.15 115.195 167.969 102.933 167.838 87.9521C167.765 79.1974 163.288 71.4513 156.39 66.5405" fill="white"/>
</g>
</g>
</svg>
