<?xml version="1.0" encoding="UTF-8" standalone="no"?>
<!DOCTYPE svg PUBLIC "-//W3C//DTD SVG 1.1//EN" "http://www.w3.org/Graphics/SVG/1.1/DTD/svg11.dtd">
<svg width="100%" height="100%" viewBox="0 0 3300 2550" version="1.1" xmlns="http://www.w3.org/2000/svg" xmlns:xlink="http://www.w3.org/1999/xlink" xml:space="preserve" xmlns:serif="http://www.serif.com/" style="fill-rule:evenodd;clip-rule:evenodd;stroke-linejoin:round;stroke-miterlimit:2;">
    <g transform="matrix(17.924,0,0,16.5233,335.171,349.514)">
        <rect x="52.566" y="0" width="1.339" height="50.218" style="fill:rgb(153,11,18);fill-rule:nonzero;"/>
    </g>
    <g transform="matrix(17.924,0,0,17.924,300,300)">
        <path d="M111.364,39.909L110.091,38.637L110.091,26.727L112.364,26.727L114.818,29.182L114.818,25.909L102.182,25.909L102.182,29.182L104.636,26.727L107,26.727L107,38.637L105.727,39.909L111.364,39.909Z" style="fill:rgb(153,11,18);fill-rule:nonzero;"/>
    </g>
    <g transform="matrix(17.924,0,0,17.924,300,300)">
        <path d="M74.546,35.727L72,38.909L71.818,39C71.546,39.091 70.909,39.273 70.273,39.273C67.455,39.273 66,37.091 66,32.546C66,30.273 66.455,28.455 67.727,27.273C68.364,26.637 69.182,26.364 70.182,26.364C70.818,26.364 71.364,26.455 71.727,26.637L74.364,29.364L74.364,26.364L73.818,26.182C73.455,26 72.909,25.909 72.182,25.818C71.546,25.727 70.818,25.637 70.091,25.637C68,25.637 66.273,26.273 65,27.637C63.727,29 63,30.727 63,33C63,36.546 64.909,40 70.091,40C70.727,40 71.455,39.909 72.273,39.727C73.091,39.546 73.636,39.364 73.909,39.273C74.182,39.182 74.455,39.091 74.636,39L74.546,35.727Z" style="fill:rgb(153,11,18);fill-rule:nonzero;"/>
    </g>
    <g transform="matrix(17.924,0,0,17.924,300,300)">
        <path d="M67.273,15.364L68.818,15.364C71,15.364 72,16.273 72,18.454C72,20.636 70.818,21.545 69,21.545L67.273,21.545L67.273,15.364ZM67.273,14.454L67.273,9.182L69,9.182C70.909,9.182 71.546,10.273 71.546,11.818C71.546,13.545 70.727,14.454 68.909,14.454L67.273,14.454ZM68.818,22.363C70.818,22.363 72.182,22.091 73.182,21.545C74.546,20.727 75.273,19.636 75.273,18.182C75.273,16.363 73.727,15.182 71.546,14.727C73.273,14.364 74.636,13.273 74.636,11.545C74.636,10.364 74.182,9.545 73.273,9.091C72.364,8.545 71.182,8.364 69.727,8.364L63.091,8.364L64.364,9.636L64.364,21.182L63.091,22.454L68.818,22.363Z" style="fill:rgb(153,11,18);fill-rule:nonzero;"/>
    </g>
    <g transform="matrix(17.924,0,0,17.924,300,300)">
        <path d="M76.636,8.364L77.909,9.636L77.909,21.182L76.636,22.454L87.545,22.454L87.545,19.091L85.091,21.545L80.909,21.545L80.909,15.636L84.545,15.636L86.273,17.363L86.273,12.909L84.545,14.636L80.909,14.636L80.909,9.182L84.818,9.182L87.273,11.636L87.273,8.364L76.636,8.364Z" style="fill:rgb(153,11,18);fill-rule:nonzero;"/>
    </g>
    <g transform="matrix(17.924,0,0,17.924,300,300)">
        <path d="M100.455,19.091L98,21.545L93.909,21.545L93.909,9.636L95.182,8.364L89.636,8.364L90.909,9.636L90.909,21.182L89.636,22.454L100.455,22.454L100.455,19.091Z" style="fill:rgb(153,11,18);fill-rule:nonzero;"/>
    </g>
    <g transform="matrix(17.924,0,0,17.924,300,300)">
        <path d="M120.273,16.455L116.364,16.455L118.454,11.546L120.273,16.455ZM126.273,22.364L125.091,21.182L119.727,8L118.818,8L113.091,21.091L111.818,22.364L115.545,22.364L114.364,21.182L116,17.273L120.636,17.273L122.091,21.182L120.909,22.364L126.273,22.364Z" style="fill:rgb(153,11,18);fill-rule:nonzero;"/>
    </g>
    <g transform="matrix(17.924,0,0,17.924,300,300)">
        <path d="M136.091,8.818L135.636,8.636C135.091,8.454 133.636,8.091 132.364,8.091C130.818,8.091 129.636,8.454 128.636,9.182C127.727,9.909 127.273,10.727 127.273,11.818C127.273,13.273 128.091,14.364 129.091,15C129.636,15.364 130.182,15.636 130.818,16C132.091,16.636 133.182,17.091 133.909,17.909C134.273,18.363 134.455,18.818 134.455,19.363C134.455,20.727 133.546,21.636 131.818,21.636C131.091,21.636 130.455,21.455 130,21.182L127.455,18.091L127.455,21.455L128,21.727C128.364,21.909 128.909,22.091 129.636,22.273C130.364,22.455 131.091,22.455 131.818,22.455C133.364,22.455 134.636,22.091 135.636,21.273C136.727,20.455 137.182,19.545 137.182,18.363C137.182,15.818 134.546,14.636 132.455,13.727C131,13.091 129.909,12.182 129.909,11C129.909,9.818 130.727,8.818 132.182,8.818C132.818,8.818 133.273,8.909 133.455,9L136.091,11.727L136.091,8.818Z" style="fill:rgb(153,11,18);fill-rule:nonzero;"/>
    </g>
    <g transform="matrix(17.924,0,0,17.924,300,300)">
        <path d="M147.182,22.454L145.909,21.182L145.909,9.182L148.182,9.182L150.636,11.636L150.636,8.364L138,8.364L138,11.727L140.455,9.273L142.727,9.273L142.727,21.182L141.455,22.454L147.182,22.454Z" style="fill:rgb(153,11,18);fill-rule:nonzero;"/>
    </g>
    <g transform="matrix(17.924,0,0,17.924,300,300)">
        <path d="M107.545,22.454L106.273,21.182L106.273,15.636L109.909,15.636L111.636,17.363L111.636,12.909L109.909,14.636L106.273,14.636L106.273,9.182L110.182,9.182L112.636,11.636L112.636,8.364L102,8.364L103.273,9.636L103.273,21.182L102,22.454L107.545,22.454Z" style="fill:rgb(153,11,18);fill-rule:nonzero;"/>
    </g>
    <g transform="matrix(17.924,0,0,17.924,300,300)">
        <path d="M84.091,33.909L80.182,33.909L82.273,29L84.091,33.909ZM90.182,39.909L89,38.727L83.636,25.545L82.727,25.545L77,38.636L75.727,39.909L79.455,39.909L78.273,38.727L79.909,34.818L84.546,34.818L86,38.727L84.818,39.909L90.182,39.909Z" style="fill:rgb(153,11,18);fill-rule:nonzero;"/>
    </g>
    <g transform="matrix(17.924,0,0,17.924,300,300)">
        <path d="M100.364,26.364L99.909,26.182C99.364,26 97.909,25.637 96.636,25.637C95.091,25.637 93.909,26 92.909,26.727C92,27.455 91.545,28.273 91.545,29.364C91.545,30.818 92.364,31.909 93.364,32.546C93.909,32.909 94.455,33.182 95.091,33.546C96.364,34.182 97.455,34.637 98.182,35.455C98.545,35.909 98.727,36.364 98.727,36.909C98.727,38.273 97.818,39.182 96.091,39.182C95.364,39.182 94.727,39 94.273,38.727L91.727,35.637L91.727,39L92.273,39.273C92.636,39.455 93.182,39.637 93.909,39.818C94.636,40 95.364,40 96.091,40C97.636,40 98.909,39.637 99.909,38.818C101,38 101.455,37.091 101.455,35.909C101.455,33.364 98.818,32.182 96.727,31.273C95.273,30.637 94.182,29.727 94.182,28.546C94.182,27.364 95,26.364 96.455,26.364C97.091,26.364 97.545,26.455 97.727,26.546L100.364,29.273L100.364,26.364Z" style="fill:rgb(153,11,18);fill-rule:nonzero;"/>
    </g>
    <g transform="matrix(17.924,0,0,17.924,300,300)">
        <path d="M127.182,36.545L124.727,39L120.636,39L120.636,27.182L121.909,25.909L116.364,25.909L117.636,27.182L117.636,38.727L116.364,40L127.182,40L127.182,36.545Z" style="fill:rgb(153,11,18);fill-rule:nonzero;"/>
    </g>
    <g transform="matrix(17.924,0,0,17.924,300,300)">
        <path d="M128.818,25.909L130.091,27.182L130.091,38.727L128.818,40L139.727,40L139.727,36.545L137.273,39L133.091,39L133.091,33.091L136.727,33.091L138.454,34.818L138.454,30.455L136.727,32.182L133.091,32.182L133.091,26.727L137,26.727L139.454,29.182L139.454,25.818L128.818,25.909Z" style="fill:rgb(153,11,18);fill-rule:nonzero;"/>
    </g>
    <g transform="matrix(17.924,0,0,17.924,300,300)">
        <path d="M51.423,4L0,4L10.044,14.044L10.044,35.269L25.712,50.87L41.38,35.269L41.38,14.044L51.423,4Z" style="fill:rgb(153,11,18);fill-rule:nonzero;"/>
    </g>
    <g transform="matrix(17.924,0,0,17.924,300,300)">
        <path d="M34.952,14.244C34.215,14.244 33.612,14.847 33.612,15.65C33.612,15.65 33.211,15.851 32.273,15.65C30.867,15.316 29.461,12.37 25.912,12.37C23.971,12.37 20.891,13.776 18.882,16.722C19.083,16.856 19.284,16.923 19.484,16.99C20.02,17.191 21.025,17.458 21.962,17.659C22.832,16.052 24.238,14.847 26.381,14.847C30.331,14.847 30.733,21.208 30.733,21.208C30.867,22.614 31.001,23.15 31.805,23.217C32.943,23.284 33.01,22.279 33.077,21.476L33.211,17.458C35.688,17.458 36.358,16.454 36.358,15.717C36.291,14.847 35.688,14.244 34.952,14.244Z" style="fill:white;fill-rule:nonzero;"/>
    </g>
    <g transform="matrix(17.924,0,0,17.924,300,300)">
        <path d="M33.211,32.524L33.144,31.519L32.474,31.519C31.604,31.519 30.8,31.385 29.997,31.118L29.997,31.184C29.394,32.59 28.323,33.729 25.779,33.729C23.234,33.729 20.623,32.59 20.623,25.56C21.092,25.56 21.493,25.158 21.493,24.69C21.493,24.221 21.092,23.819 20.623,23.819C20.623,23.016 20.69,22.145 20.824,21.208C20.422,21.141 19.886,21.141 19.351,21.141C18.547,21.141 17.744,21.409 17.074,21.81C17.007,22.346 17.007,22.882 17.007,23.484C18.011,23.484 18.882,24.087 18.949,25.091C18.949,26.096 18.078,26.698 17.074,26.698C17.074,34.934 22.431,36.273 23.703,36.273C28.122,36.273 29.595,34.064 31.738,34.064C32.273,34.064 32.273,34.867 32.273,34.867C32.273,35.671 32.943,36.273 33.679,36.273C34.483,36.273 35.086,35.604 35.086,34.867C35.019,33.193 33.88,32.524 33.211,32.524Z" style="fill:white;fill-rule:nonzero;"/>
    </g>
    <g transform="matrix(17.924,0,0,17.924,300,300)">
        <path d="M31.939,27.837C32.34,27.837 32.675,27.77 33.01,27.77L33.01,27.033C32.943,26.096 32.407,25.962 31.805,25.962C31.202,25.962 30.8,26.297 30.8,26.966C30.8,26.966 30.8,27.301 30.733,27.77C31.135,27.77 31.537,27.837 31.939,27.837Z" style="fill:white;fill-rule:nonzero;"/>
    </g>
    <g transform="matrix(17.924,0,0,17.924,300,300)">
        <path d="M36.559,19.668C37.63,18.998 38.835,17.927 38.835,17.927C38.969,17.793 39.103,17.525 39.103,17.324C39.103,16.856 38.701,16.454 38.233,16.454C38.099,16.454 37.965,16.521 37.831,16.588C37.831,16.588 35.822,17.994 33.746,18.329L33.68,18.329L33.613,20.94C35.487,21.409 36.826,22.681 36.826,24.422C36.826,26.564 34.684,28.305 32.072,28.372C29.394,28.372 27.252,26.698 27.252,24.556C27.252,22.882 28.524,21.61 30.332,21.074C30.265,20.672 30.198,19.668 29.863,18.664L28.189,18.664C28.189,19.467 27.319,20.137 26.18,20.137C25.042,20.137 24.172,19.534 24.172,18.73C24.172,18.73 20.69,18.061 19.485,17.592C18.279,17.123 15.735,15.717 15.735,15.717C15.601,15.65 15.467,15.65 15.333,15.65C14.865,15.65 14.463,16.052 14.463,16.521C14.463,16.789 14.597,17.057 14.798,17.19L16.94,18.931C14.396,20.003 12.521,22.949 12.521,25.895C12.521,29.176 14.396,31.519 17.476,31.988C16.94,30.716 16.739,29.444 16.605,28.238C15.467,27.703 14.731,26.698 14.731,25.359C14.731,23.15 16.672,20.806 19.351,20.806C23.033,20.806 24.305,22.212 24.305,24.288C24.305,25.962 23.1,27.703 21.292,28.439C21.426,29.511 21.694,30.448 22.029,31.184C23.904,30.113 25.31,28.305 25.645,26.297C25.645,26.23 25.712,26.163 25.779,26.163C25.846,26.163 25.912,26.23 25.912,26.23C26.582,29.109 29.327,31.251 32.608,31.251C36.358,31.251 39.371,28.372 39.304,24.824C39.237,22.614 38.166,20.806 36.559,19.668Z" style="fill:white;fill-rule:nonzero;"/>
    </g>
    <g transform="matrix(17.924,0,0,17.924,300,300)">
        <path d="M63.621,60L62.763,57.569L59.848,57.569L59.001,60L58,60L60.86,52.113L61.784,52.113L64.633,60L63.621,60ZM61.663,54.313C61.648,54.254 61.615,54.148 61.564,53.994C61.52,53.84 61.472,53.682 61.421,53.521C61.377,53.352 61.34,53.224 61.311,53.136C61.274,53.283 61.234,53.433 61.19,53.587C61.153,53.734 61.117,53.869 61.08,53.994C61.043,54.119 61.01,54.225 60.981,54.313L60.167,56.689L62.477,56.689L61.663,54.313ZM70.964,53.994C71.624,53.994 72.122,54.166 72.46,54.511C72.804,54.848 72.977,55.398 72.977,56.161L72.977,60L72.02,60L72.02,56.227C72.02,55.75 71.921,55.395 71.723,55.16C71.525,54.925 71.22,54.808 70.81,54.808C70.208,54.808 69.79,54.991 69.556,55.358C69.328,55.725 69.215,56.253 69.215,56.942L69.215,60L68.258,60L68.258,54.104L69.028,54.104L69.171,54.907L69.226,54.907C69.343,54.702 69.493,54.533 69.677,54.401C69.86,54.262 70.062,54.159 70.282,54.093C70.502,54.027 70.729,53.994 70.964,53.994ZM79.335,59.318C79.474,59.318 79.617,59.307 79.763,59.285C79.91,59.256 80.031,59.226 80.126,59.197L80.126,59.934C80.024,59.985 79.877,60.026 79.687,60.055C79.503,60.092 79.327,60.11 79.159,60.11C78.865,60.11 78.594,60.059 78.345,59.956C78.095,59.846 77.894,59.659 77.74,59.395C77.593,59.131 77.519,58.761 77.519,58.284L77.519,54.852L76.739,54.852L76.739,54.39L77.542,54.005L77.905,52.751L78.477,52.751L78.477,54.104L80.083,54.104L80.083,54.852L78.477,54.852L78.477,58.262C78.477,58.621 78.557,58.889 78.719,59.065C78.88,59.234 79.085,59.318 79.335,59.318ZM86.603,53.994C86.705,53.994 86.815,54.001 86.933,54.016C87.05,54.023 87.153,54.038 87.241,54.06L87.131,54.951C87.043,54.929 86.944,54.911 86.834,54.896C86.731,54.881 86.632,54.874 86.537,54.874C86.324,54.874 86.122,54.922 85.932,55.017C85.741,55.112 85.569,55.248 85.415,55.424C85.268,55.593 85.15,55.798 85.063,56.04C84.975,56.282 84.931,56.553 84.931,56.854L84.931,60L83.974,60L83.974,54.104L84.754,54.104L84.865,55.182L84.909,55.182C85.026,54.962 85.165,54.764 85.327,54.588C85.495,54.405 85.686,54.262 85.899,54.159C86.111,54.049 86.346,53.994 86.603,53.994ZM91.988,54.104L91.988,60L91.031,60L91.031,54.104L91.988,54.104ZM91.515,51.893C91.662,51.893 91.79,51.944 91.9,52.047C92.01,52.142 92.065,52.296 92.065,52.509C92.065,52.714 92.01,52.868 91.9,52.971C91.79,53.074 91.662,53.125 91.515,53.125C91.361,53.125 91.229,53.074 91.119,52.971C91.009,52.868 90.954,52.714 90.954,52.509C90.954,52.296 91.009,52.142 91.119,52.047C91.229,51.944 91.361,51.893 91.515,51.893ZM102.604,53.994C103.235,53.994 103.704,54.166 104.012,54.511C104.32,54.848 104.474,55.398 104.474,56.161L104.474,60L103.528,60L103.528,56.205C103.528,55.743 103.437,55.395 103.253,55.16C103.077,54.925 102.799,54.808 102.417,54.808C101.889,54.808 101.512,54.973 101.284,55.303C101.064,55.633 100.954,56.113 100.954,56.744L100.954,60L99.997,60L99.997,56.205C99.997,55.897 99.957,55.64 99.876,55.435C99.796,55.222 99.675,55.065 99.513,54.962C99.352,54.859 99.143,54.808 98.886,54.808C98.52,54.808 98.23,54.892 98.017,55.061C97.805,55.222 97.654,55.461 97.566,55.776C97.478,56.091 97.434,56.48 97.434,56.942L97.434,60L96.477,60L96.477,54.104L97.247,54.104L97.39,54.907L97.445,54.907C97.563,54.702 97.706,54.533 97.874,54.401C98.043,54.262 98.23,54.159 98.435,54.093C98.641,54.027 98.853,53.994 99.073,53.994C99.499,53.994 99.854,54.075 100.14,54.236C100.426,54.397 100.635,54.647 100.767,54.984L100.833,54.984C101.017,54.647 101.266,54.397 101.581,54.236C101.904,54.075 102.245,53.994 102.604,53.994ZM116.541,52.146C117.157,52.146 117.663,52.23 118.059,52.399C118.462,52.56 118.759,52.806 118.95,53.136C119.148,53.466 119.247,53.88 119.247,54.379C119.247,54.797 119.174,55.145 119.027,55.424C118.888,55.703 118.704,55.926 118.477,56.095C118.257,56.256 118.022,56.385 117.773,56.48L119.819,60L118.675,60L116.893,56.755L115.474,56.755L115.474,60L114.495,60L114.495,52.146L116.541,52.146ZM116.486,53.004L115.474,53.004L115.474,55.919L116.53,55.919C116.926,55.919 117.249,55.864 117.498,55.754C117.755,55.637 117.942,55.468 118.059,55.248C118.176,55.028 118.235,54.753 118.235,54.423C118.235,54.078 118.173,53.803 118.048,53.598C117.923,53.393 117.729,53.242 117.465,53.147C117.208,53.052 116.882,53.004 116.486,53.004ZM128.431,57.041C128.431,57.532 128.369,57.969 128.244,58.35C128.127,58.724 127.954,59.043 127.727,59.307C127.5,59.571 127.225,59.773 126.902,59.912C126.579,60.044 126.22,60.11 125.824,60.11C125.457,60.11 125.116,60.044 124.801,59.912C124.493,59.773 124.222,59.571 123.987,59.307C123.76,59.043 123.584,58.724 123.459,58.35C123.334,57.969 123.272,57.532 123.272,57.041C123.272,56.388 123.375,55.838 123.58,55.391C123.793,54.936 124.093,54.592 124.482,54.357C124.871,54.115 125.329,53.994 125.857,53.994C126.363,53.994 126.807,54.115 127.188,54.357C127.577,54.592 127.881,54.936 128.101,55.391C128.321,55.838 128.431,56.388 128.431,57.041ZM124.262,57.041C124.262,57.503 124.317,57.906 124.427,58.251C124.537,58.588 124.709,58.849 124.944,59.032C125.179,59.215 125.479,59.307 125.846,59.307C126.213,59.307 126.513,59.215 126.748,59.032C126.983,58.849 127.155,58.588 127.265,58.251C127.382,57.906 127.441,57.503 127.441,57.041C127.441,56.572 127.382,56.172 127.265,55.842C127.155,55.512 126.983,55.259 126.748,55.083C126.513,54.9 126.209,54.808 125.835,54.808C125.285,54.808 124.885,55.006 124.636,55.402C124.387,55.798 124.262,56.344 124.262,57.041ZM134.726,54.005C135.401,54.005 135.903,54.163 136.233,54.478C136.571,54.793 136.739,55.296 136.739,55.985L136.739,60L136.046,60L135.859,59.164L135.815,59.164C135.654,59.377 135.489,59.556 135.32,59.703C135.159,59.842 134.968,59.945 134.748,60.011C134.536,60.077 134.272,60.11 133.956,60.11C133.626,60.11 133.329,60.048 133.065,59.923C132.801,59.798 132.592,59.608 132.438,59.351C132.284,59.087 132.207,58.757 132.207,58.361C132.207,57.774 132.424,57.323 132.856,57.008C133.289,56.685 133.956,56.509 134.858,56.48L135.793,56.447L135.793,56.095C135.793,55.604 135.694,55.263 135.496,55.072C135.306,54.881 135.031,54.786 134.671,54.786C134.385,54.786 134.11,54.834 133.846,54.929C133.59,55.017 133.344,55.12 133.109,55.237L132.812,54.511C133.062,54.372 133.351,54.254 133.681,54.159C134.011,54.056 134.36,54.005 134.726,54.005ZM134.99,57.151C134.316,57.18 133.846,57.298 133.582,57.503C133.326,57.708 133.197,57.998 133.197,58.372C133.197,58.702 133.289,58.944 133.472,59.098C133.656,59.252 133.894,59.329 134.187,59.329C134.642,59.329 135.023,59.193 135.331,58.922C135.639,58.643 135.793,58.218 135.793,57.646L135.793,57.118L134.99,57.151ZM143.155,60.11C142.473,60.11 141.923,59.857 141.505,59.351C141.094,58.838 140.889,58.075 140.889,57.063C140.889,56.051 141.098,55.288 141.516,54.775C141.934,54.254 142.484,53.994 143.166,53.994C143.452,53.994 143.701,54.034 143.914,54.115C144.127,54.188 144.31,54.291 144.464,54.423C144.625,54.555 144.761,54.702 144.871,54.863L144.937,54.863C144.93,54.768 144.915,54.628 144.893,54.445C144.878,54.254 144.871,54.104 144.871,53.994L144.871,51.64L145.828,51.64L145.828,60L145.058,60L144.915,59.208L144.871,59.208C144.761,59.377 144.625,59.531 144.464,59.67C144.31,59.802 144.123,59.908 143.903,59.989C143.69,60.07 143.441,60.11 143.155,60.11ZM143.331,59.307C143.903,59.307 144.303,59.138 144.53,58.801C144.765,58.456 144.882,57.939 144.882,57.25L144.882,57.074C144.882,56.341 144.772,55.78 144.552,55.391C144.332,54.995 143.921,54.797 143.32,54.797C142.836,54.797 142.473,55.006 142.231,55.424C141.996,55.835 141.879,56.388 141.879,57.085C141.879,57.789 141.996,58.335 142.231,58.724C142.473,59.113 142.84,59.307 143.331,59.307ZM61.124,67.146C61.74,67.146 62.257,67.208 62.675,67.333C63.093,67.458 63.408,67.663 63.621,67.949C63.834,68.235 63.94,68.616 63.94,69.093C63.94,69.401 63.885,69.676 63.775,69.918C63.672,70.153 63.518,70.351 63.313,70.512C63.108,70.666 62.855,70.772 62.554,70.831L62.554,70.886C62.862,70.937 63.137,71.033 63.379,71.172C63.628,71.311 63.823,71.509 63.962,71.766C64.109,72.023 64.182,72.356 64.182,72.767C64.182,73.244 64.076,73.651 63.863,73.988C63.658,74.318 63.364,74.571 62.983,74.747C62.602,74.916 62.143,75 61.608,75L59.001,75L59.001,67.146L61.124,67.146ZM61.311,70.49C61.927,70.49 62.349,70.384 62.576,70.171C62.811,69.951 62.928,69.628 62.928,69.203C62.928,68.77 62.785,68.462 62.499,68.279C62.22,68.088 61.777,67.993 61.168,67.993L59.98,67.993L59.98,70.49L61.311,70.49ZM59.98,71.315L59.98,74.164L61.432,74.164C62.07,74.164 62.514,74.028 62.763,73.757C63.02,73.486 63.148,73.13 63.148,72.69C63.148,72.411 63.089,72.169 62.972,71.964C62.862,71.759 62.679,71.601 62.422,71.491C62.165,71.374 61.813,71.315 61.366,71.315L59.98,71.315ZM70.521,68.994C70.998,68.994 71.408,69.104 71.753,69.324C72.098,69.544 72.362,69.856 72.545,70.259C72.736,70.655 72.831,71.121 72.831,71.656L72.831,72.239L69.047,72.239C69.062,72.906 69.219,73.416 69.52,73.768C69.821,74.113 70.242,74.285 70.785,74.285C71.137,74.285 71.449,74.252 71.72,74.186C71.999,74.113 72.285,74.01 72.578,73.878L72.578,74.725C72.292,74.857 72.01,74.952 71.731,75.011C71.46,75.077 71.13,75.11 70.741,75.11C70.213,75.11 69.747,74.996 69.344,74.769C68.941,74.542 68.625,74.204 68.398,73.757C68.171,73.302 68.057,72.749 68.057,72.096C68.057,71.451 68.16,70.897 68.365,70.435C68.57,69.973 68.856,69.617 69.223,69.368C69.597,69.119 70.03,68.994 70.521,68.994ZM70.521,69.786C70.096,69.786 69.758,69.936 69.509,70.237C69.26,70.53 69.113,70.941 69.069,71.469L71.841,71.469C71.841,71.132 71.793,70.838 71.698,70.589C71.603,70.34 71.456,70.145 71.258,70.006C71.067,69.859 70.822,69.786 70.521,69.786ZM77.927,75L76.97,75L76.97,66.64L77.927,66.64L77.927,75ZM85.012,69.852L83.626,69.852L83.626,75L82.658,75L82.658,69.852L81.701,69.852L81.701,69.401L82.658,69.071L82.658,68.73C82.658,68.224 82.728,67.813 82.867,67.498C83.013,67.183 83.223,66.952 83.494,66.805C83.765,66.658 84.092,66.585 84.473,66.585C84.7,66.585 84.906,66.607 85.089,66.651C85.28,66.688 85.445,66.732 85.584,66.783L85.331,67.542C85.214,67.505 85.082,67.469 84.935,67.432C84.796,67.395 84.649,67.377 84.495,67.377C84.202,67.377 83.982,67.487 83.835,67.707C83.696,67.92 83.626,68.257 83.626,68.719L83.626,69.104L85.012,69.104L85.012,69.852ZM90.877,69.005C91.551,69.005 92.054,69.163 92.384,69.478C92.721,69.793 92.89,70.296 92.89,70.985L92.89,75L92.197,75L92.01,74.164L91.966,74.164C91.804,74.377 91.639,74.556 91.471,74.703C91.309,74.842 91.119,74.945 90.899,75.011C90.686,75.077 90.422,75.11 90.107,75.11C89.777,75.11 89.48,75.048 89.216,74.923C88.952,74.798 88.743,74.608 88.589,74.351C88.435,74.087 88.358,73.757 88.358,73.361C88.358,72.774 88.574,72.323 89.007,72.008C89.439,71.685 90.107,71.509 91.009,71.48L91.944,71.447L91.944,71.095C91.944,70.604 91.845,70.263 91.647,70.072C91.456,69.881 91.181,69.786 90.822,69.786C90.536,69.786 90.261,69.834 89.997,69.929C89.74,70.017 89.494,70.12 89.26,70.237L88.963,69.511C89.212,69.372 89.502,69.254 89.832,69.159C90.162,69.056 90.51,69.005 90.877,69.005ZM91.141,72.151C90.466,72.18 89.997,72.298 89.733,72.503C89.476,72.708 89.348,72.998 89.348,73.372C89.348,73.702 89.439,73.944 89.623,74.098C89.806,74.252 90.044,74.329 90.338,74.329C90.792,74.329 91.174,74.193 91.482,73.922C91.79,73.643 91.944,73.218 91.944,72.646L91.944,72.118L91.141,72.151ZM100.989,73.372C100.989,73.753 100.897,74.072 100.714,74.329C100.538,74.586 100.285,74.78 99.955,74.912C99.625,75.044 99.229,75.11 98.766,75.11C98.378,75.11 98.04,75.077 97.754,75.011C97.476,74.945 97.23,74.853 97.018,74.736L97.018,73.856C97.245,73.973 97.516,74.083 97.832,74.186C98.147,74.281 98.466,74.329 98.789,74.329C99.236,74.329 99.559,74.252 99.757,74.098C99.962,73.937 100.065,73.724 100.065,73.46C100.065,73.313 100.024,73.181 99.944,73.064C99.87,72.947 99.735,72.829 99.537,72.712C99.346,72.595 99.067,72.463 98.701,72.316C98.349,72.169 98.044,72.023 97.787,71.876C97.538,71.729 97.344,71.553 97.205,71.348C97.073,71.143 97.007,70.879 97.007,70.556C97.007,70.057 97.197,69.672 97.579,69.401C97.967,69.13 98.473,68.994 99.097,68.994C99.434,68.994 99.749,69.031 100.043,69.104C100.336,69.17 100.615,69.265 100.879,69.39L100.56,70.16C100.406,70.087 100.244,70.024 100.076,69.973C99.907,69.914 99.735,69.87 99.559,69.841C99.39,69.804 99.218,69.786 99.042,69.786C98.682,69.786 98.407,69.852 98.217,69.984C98.026,70.109 97.931,70.281 97.931,70.501C97.931,70.662 97.975,70.802 98.063,70.919C98.15,71.036 98.293,71.15 98.492,71.26C98.697,71.363 98.976,71.484 99.328,71.623C99.68,71.762 99.98,71.905 100.23,72.052C100.479,72.199 100.666,72.378 100.791,72.591C100.923,72.796 100.989,73.057 100.989,73.372ZM106.974,74.318C107.113,74.318 107.256,74.307 107.403,74.285C107.55,74.256 107.671,74.226 107.766,74.197L107.766,74.934C107.663,74.985 107.517,75.026 107.326,75.055C107.143,75.092 106.967,75.11 106.798,75.11C106.505,75.11 106.233,75.059 105.984,74.956C105.735,74.846 105.533,74.659 105.379,74.395C105.232,74.131 105.159,73.761 105.159,73.284L105.159,69.852L104.378,69.852L104.378,69.39L105.181,69.005L105.544,67.751L106.116,67.751L106.116,69.104L107.722,69.104L107.722,69.852L106.116,69.852L106.116,73.262C106.116,73.621 106.197,73.889 106.358,74.065C106.519,74.234 106.725,74.318 106.974,74.318ZM61.124,82.146C61.74,82.146 62.257,82.208 62.675,82.333C63.093,82.458 63.408,82.663 63.621,82.949C63.834,83.235 63.94,83.616 63.94,84.093C63.94,84.401 63.885,84.676 63.775,84.918C63.672,85.153 63.518,85.351 63.313,85.512C63.108,85.666 62.855,85.772 62.554,85.831L62.554,85.886C62.862,85.937 63.137,86.033 63.379,86.172C63.628,86.311 63.823,86.509 63.962,86.766C64.109,87.023 64.182,87.356 64.182,87.767C64.182,88.244 64.076,88.651 63.863,88.988C63.658,89.318 63.364,89.571 62.983,89.747C62.602,89.916 62.143,90 61.608,90L59.001,90L59.001,82.146L61.124,82.146ZM61.311,85.49C61.927,85.49 62.349,85.384 62.576,85.171C62.811,84.951 62.928,84.628 62.928,84.203C62.928,83.77 62.785,83.462 62.499,83.279C62.22,83.088 61.777,82.993 61.168,82.993L59.98,82.993L59.98,85.49L61.311,85.49ZM59.98,86.315L59.98,89.164L61.432,89.164C62.07,89.164 62.514,89.028 62.763,88.757C63.02,88.486 63.148,88.13 63.148,87.69C63.148,87.411 63.089,87.169 62.972,86.964C62.862,86.759 62.679,86.601 62.422,86.491C62.165,86.374 61.813,86.315 61.366,86.315L59.98,86.315ZM70.873,90L69.894,90L69.894,83.015L67.606,83.015L67.606,82.146L73.139,82.146L73.139,83.015L70.873,83.015L70.873,90ZM79.722,90L78.787,90L78.787,83.972C78.794,83.825 78.801,83.69 78.809,83.565C78.816,83.433 78.823,83.297 78.831,83.158C78.728,83.275 78.629,83.378 78.534,83.466C78.438,83.547 78.325,83.646 78.193,83.763L77.412,84.445L76.906,83.796L78.93,82.146L79.722,82.146L79.722,90ZM87.533,85.182C88.031,85.182 88.464,85.274 88.831,85.457C89.205,85.64 89.495,85.904 89.7,86.249C89.905,86.586 90.008,87.001 90.008,87.492C90.008,88.035 89.898,88.504 89.678,88.9C89.458,89.289 89.139,89.589 88.721,89.802C88.31,90.007 87.812,90.11 87.225,90.11C86.844,90.11 86.488,90.073 86.158,90C85.828,89.927 85.546,89.82 85.311,89.681L85.311,88.768C85.56,88.929 85.861,89.058 86.213,89.153C86.572,89.241 86.913,89.285 87.236,89.285C87.595,89.285 87.907,89.226 88.171,89.109C88.442,88.984 88.651,88.797 88.798,88.548C88.952,88.291 89.029,87.972 89.029,87.591C89.029,87.078 88.882,86.685 88.589,86.414C88.296,86.135 87.834,85.996 87.203,85.996C87.005,85.996 86.781,86.014 86.532,86.051C86.29,86.088 86.096,86.124 85.949,86.161L85.487,85.853L85.762,82.146L89.491,82.146L89.491,83.026L86.587,83.026L86.411,85.303C86.536,85.281 86.693,85.255 86.884,85.226C87.075,85.197 87.291,85.182 87.533,85.182ZM101.627,85.182C102.125,85.182 102.558,85.274 102.925,85.457C103.299,85.64 103.588,85.904 103.794,86.249C103.999,86.586 104.102,87.001 104.102,87.492C104.102,88.035 103.992,88.504 103.772,88.9C103.552,89.289 103.233,89.589 102.815,89.802C102.404,90.007 101.905,90.11 101.319,90.11C100.937,90.11 100.582,90.073 100.252,90C99.922,89.927 99.639,89.82 99.405,89.681L99.405,88.768C99.654,88.929 99.955,89.058 100.307,89.153C100.666,89.241 101.007,89.285 101.33,89.285C101.689,89.285 102.001,89.226 102.265,89.109C102.536,88.984 102.745,88.797 102.892,88.548C103.046,88.291 103.123,87.972 103.123,87.591C103.123,87.078 102.976,86.685 102.683,86.414C102.389,86.135 101.927,85.996 101.297,85.996C101.099,85.996 100.875,86.014 100.626,86.051C100.384,86.088 100.189,86.124 100.043,86.161L99.581,85.853L99.856,82.146L103.585,82.146L103.585,83.026L100.681,83.026L100.505,85.303C100.629,85.281 100.787,85.255 100.978,85.226C101.168,85.197 101.385,85.182 101.627,85.182ZM111.594,85.853L114.179,85.853L114.179,89.703C113.783,89.842 113.379,89.945 112.969,90.011C112.565,90.077 112.103,90.11 111.583,90.11C110.82,90.11 110.175,89.949 109.647,89.626C109.126,89.296 108.73,88.83 108.459,88.229C108.187,87.62 108.052,86.902 108.052,86.073C108.052,85.252 108.202,84.54 108.503,83.939C108.803,83.338 109.24,82.872 109.812,82.542C110.384,82.205 111.073,82.036 111.88,82.036C112.29,82.036 112.679,82.076 113.046,82.157C113.42,82.238 113.764,82.351 114.08,82.498L113.717,83.356C113.46,83.231 113.167,83.125 112.837,83.037C112.514,82.949 112.18,82.905 111.836,82.905C111.256,82.905 110.761,83.033 110.351,83.29C109.94,83.547 109.625,83.913 109.405,84.39C109.185,84.859 109.075,85.42 109.075,86.073C109.075,86.696 109.166,87.25 109.35,87.734C109.533,88.211 109.823,88.585 110.219,88.856C110.622,89.12 111.146,89.252 111.792,89.252C112.004,89.252 112.191,89.245 112.353,89.23C112.521,89.208 112.675,89.182 112.815,89.153C112.954,89.124 113.082,89.094 113.2,89.065L113.2,86.733L111.594,86.733L111.594,85.853ZM120.741,82.146C121.357,82.146 121.863,82.23 122.259,82.399C122.663,82.56 122.96,82.806 123.15,83.136C123.348,83.466 123.447,83.88 123.447,84.379C123.447,84.797 123.374,85.145 123.227,85.424C123.088,85.703 122.905,85.926 122.677,86.095C122.457,86.256 122.223,86.385 121.973,86.48L124.019,90L122.875,90L121.093,86.755L119.674,86.755L119.674,90L118.695,90L118.695,82.146L120.741,82.146ZM120.686,83.004L119.674,83.004L119.674,85.919L120.73,85.919C121.126,85.919 121.449,85.864 121.698,85.754C121.955,85.637 122.142,85.468 122.259,85.248C122.377,85.028 122.435,84.753 122.435,84.423C122.435,84.078 122.373,83.803 122.248,83.598C122.124,83.393 121.929,83.242 121.665,83.147C121.409,83.052 121.082,83.004 120.686,83.004Z" style="fill-rule:nonzero;"/>
    </g>
</svg>
